<?xml version="1.0" encoding="utf-8"?>
<!-- Generator: Adobe Illustrator 27.5.0, SVG Export Plug-In . SVG Version: 6.00 Build 0)  -->
<svg version="1.1" xmlns="http://www.w3.org/2000/svg" xmlns:xlink="http://www.w3.org/1999/xlink" x="0px" y="0px"
	 viewBox="0 0 500 500" style="enable-background:new 0 0 500 500;" xml:space="preserve">
<g id="BACKGROUND">
	<g>
		<rect style="fill:#F8E6FA;" width="500" height="500"/>
	</g>
</g>
<g id="OBJECTS">
	<g>
		<g>
			<g>
				<path style="fill:#FAB63B;" d="M228.911,139.356c-14.701,7.461-32.667,1.593-40.128-13.108
					c-7.462-14.701-1.593-32.667,13.108-40.128c14.701-7.461,32.667-1.593,40.128,13.108
					C249.48,113.928,243.611,131.894,228.911,139.356z"/>
			</g>
			<g>
				<g>
					<path style="fill:#FAB63B;" d="M167.833,129.049c-1.645,0-3.103-1.179-3.398-2.854c-0.332-1.879,0.922-3.672,2.801-4.003
						c3.594-0.635,7.138-1.639,10.532-2.983c1.775-0.704,3.783,0.166,4.485,1.94c0.703,1.774-0.166,3.782-1.94,4.485
						c-3.827,1.516-7.822,2.647-11.875,3.363C168.235,129.032,168.033,129.049,167.833,129.049z"/>
				</g>
				<g>
					<path style="fill:#FAB63B;" d="M181.685,102.625c-0.276,0-0.558-0.034-0.838-0.104c-3.335-0.831-6.661-1.854-9.883-3.04
						c-1.791-0.659-2.708-2.645-2.049-4.436c0.659-1.791,2.645-2.709,4.436-2.049c2.989,1.1,6.074,2.049,9.167,2.82
						c1.852,0.461,2.979,2.336,2.517,4.188C184.644,101.576,183.235,102.625,181.685,102.625z"/>
				</g>
				<g>
					<path style="fill:#FAB63B;" d="M194.16,83.658c-1.362,0-2.653-0.811-3.2-2.15c-1.176-2.879-2.749-5.574-4.676-8.009
						c-1.184-1.497-0.931-3.669,0.565-4.854c1.497-1.185,3.67-0.931,4.854,0.565c2.331,2.946,4.233,6.204,5.655,9.685
						c0.722,1.767-0.126,3.783-1.893,4.505C195.038,83.576,194.596,83.658,194.16,83.658z"/>
				</g>
				<g>
					<path style="fill:#FAB63B;" d="M217.389,79.327c-1.646,0-3.105-1.181-3.399-2.859l-1.993-11.361
						c-0.33-1.879,0.927-3.67,2.807-4c1.88-0.326,3.67,0.928,4,2.807l1.993,11.361c0.329,1.879-0.927,3.67-2.807,4
						C217.788,79.31,217.587,79.327,217.389,79.327z"/>
				</g>
				<g>
					<path style="fill:#FAB63B;" d="M238.272,84.928c-0.663,0-1.332-0.19-1.923-0.587c-1.585-1.063-2.007-3.21-0.943-4.794
						c1.708-2.545,3.324-5.203,4.803-7.898c0.918-1.673,3.018-2.286,4.691-1.368c1.673,0.917,2.286,3.018,1.368,4.691
						c-1.577,2.876-3.301,5.711-5.124,8.427C240.477,84.391,239.384,84.928,238.272,84.928z"/>
				</g>
				<g>
					<path style="fill:#FAB63B;" d="M252.39,100.01c-1.522,0-2.917-1.014-3.333-2.553c-0.499-1.842,0.591-3.74,2.433-4.238
						c3.869-1.047,5.189-1.524,8.832-3.195c1.733-0.794,3.786-0.034,4.581,1.701c0.795,1.735,0.034,3.786-1.701,4.581
						c-3.997,1.832-5.663,2.435-9.907,3.584C252.992,99.971,252.689,100.01,252.39,100.01z"/>
				</g>
				<g>
					<path style="fill:#FAB63B;" d="M263.597,128.366c-0.392,0-0.79-0.067-1.179-0.208c-3.826-1.389-6.579-2.253-10.521-3.303
						c-1.844-0.491-2.941-2.384-2.45-4.228c0.491-1.845,2.385-2.939,4.228-2.45c4.159,1.107,7.064,2.02,11.101,3.485
						c1.793,0.651,2.72,2.633,2.069,4.427C266.335,127.493,265.009,128.366,263.597,128.366z"/>
				</g>
				<g>
					<path style="fill:#FAB63B;" d="M243.228,158.936c-1.126,0-2.23-0.55-2.894-1.563c-0.115-0.175-2.846-4.353-5.621-9.12
						c-0.96-1.649-0.401-3.764,1.249-4.724c1.649-0.96,3.765-0.401,4.724,1.249c2.679,4.603,5.402,8.768,5.429,8.809
						c1.045,1.597,0.599,3.738-0.998,4.784C244.534,158.753,243.878,158.936,243.228,158.936z"/>
				</g>
				<g>
					<path style="fill:#FAB63B;" d="M211.599,166.99c-0.046,0-0.092-0.001-0.138-0.002c-1.907-0.075-3.392-1.682-3.317-3.588
						l0.424-10.801c0.075-1.907,1.685-3.401,3.588-3.317c1.907,0.075,3.392,1.682,3.317,3.588l-0.424,10.801
						C214.976,165.531,213.445,166.99,211.599,166.99z"/>
				</g>
				<g>
					<path style="fill:#FAB63B;" d="M184.597,155.717c-0.771,0-1.546-0.257-2.189-0.784c-1.476-1.21-1.691-3.387-0.481-4.863
						l7.926-9.667c1.21-1.477,3.386-1.691,4.863-0.481c1.476,1.21,1.691,3.387,0.481,4.863l-7.926,9.667
						C186.588,155.285,185.596,155.717,184.597,155.717z"/>
				</g>
			</g>
		</g>
		<g>
			<g>
				<path style="fill:#FFFFFF;" d="M377.051,116.933c-7.927,0-14.353-6.426-14.353-14.353s6.426-14.353,14.353-14.353
					c1.86,0,3.635,0.358,5.267,1.002c-0.017-0.332-0.025-0.666-0.025-1.002c0-10.821,8.773-19.594,19.594-19.594
					c10.822,0,19.594,8.773,19.594,19.594c0,0.032-0.002,0.064-0.002,0.097c0.54-0.062,1.088-0.097,1.644-0.097
					c7.927,0,14.353,6.426,14.353,14.353s-6.426,14.353-14.353,14.353H377.051z"/>
			</g>
			<g>
				<path style="fill:#FFFFFF;" d="M72.781,168.805c-7.999,0-14.483-6.484-14.483-14.483c0-7.999,6.484-14.483,14.483-14.483
					c1.877,0,3.669,0.361,5.314,1.011c-0.017-0.335-0.026-0.672-0.026-1.011c0-10.92,8.852-19.772,19.772-19.772
					c10.92,0,19.772,8.852,19.772,19.772c0,0.033-0.002,0.065-0.003,0.098c0.545-0.062,1.098-0.098,1.659-0.098
					c7.999,0,14.483,6.484,14.483,14.483c0,7.999-6.484,14.483-14.483,14.483H72.781z"/>
			</g>
		</g>
	</g>
	<g>
		<g>
			<g>
				<path style="fill:#F8E6FA;" d="M446.506,263.066h-386.7c-5.335,0-7.528-5.496-3.188-7.986l23.873-13.692
					c3.608-2.069,7.931-3.182,12.364-3.182h320.601c4.434,0,8.757,1.112,12.364,3.182l23.873,13.692
					C454.034,257.57,451.841,263.066,446.506,263.066z"/>
				<path style="fill:#F6CBFA;" d="M446.506,263.515h-386.7c-3.302,0-5.293-1.926-5.802-3.834c-0.516-1.936,0.401-3.847,2.391-4.989
					L80.269,241c3.696-2.12,8.049-3.241,12.587-3.241h320.601c4.538,0,8.891,1.121,12.587,3.241l23.873,13.692
					c1.99,1.142,2.907,3.054,2.391,4.989C451.799,261.589,449.808,263.515,446.506,263.515z M92.855,238.655
					c-4.382,0-8.58,1.08-12.141,3.122l-23.874,13.692c-1.646,0.944-2.383,2.433-1.971,3.981c0.42,1.577,2.109,3.168,4.936,3.168
					h386.7c2.827,0,4.516-1.591,4.936-3.168c0.412-1.548-0.325-3.037-1.971-3.981l-23.874-13.692
					c-3.561-2.042-7.759-3.122-12.141-3.122H92.855z"/>
			</g>
			<polygon style="fill:#F6CBFA;" points="435.299,263.483 435.755,262.649 413.603,250.529 435.527,250.529 435.527,249.471 
				411.67,249.471 390.32,237.79 389.864,238.624 409.69,249.471 385.291,249.471 367.53,237.81 367.009,238.604 383.561,249.471 
				358.921,249.471 344.748,237.839 344.146,238.574 357.423,249.471 332.561,249.471 321.975,237.886 321.273,238.527 
				331.275,249.471 306.22,249.471 299.207,237.96 298.396,238.454 305.108,249.471 279.906,249.471 276.433,238.068 
				275.524,238.345 278.913,249.471 253.631,249.471 253.631,238.206 252.681,238.206 252.681,249.471 227.398,249.471 
				230.788,238.345 229.878,238.068 226.405,249.471 201.204,249.471 207.916,238.454 207.105,237.96 200.091,249.471 
				175.037,249.471 185.038,238.527 184.337,237.886 173.75,249.471 148.888,249.471 162.166,238.574 161.564,237.839 
				147.391,249.471 122.751,249.471 139.303,238.604 138.781,237.81 121.02,249.471 96.622,249.471 116.448,238.624 115.992,237.79 
				94.642,249.471 69.529,249.471 69.529,250.529 92.709,250.529 70.557,262.649 71.013,263.483 94.689,250.529 119.41,250.529 
				100.919,262.669 101.44,263.463 121.14,250.529 146.102,250.529 131.274,262.699 131.876,263.434 147.6,250.529 172.784,250.529 
				161.62,262.746 162.321,263.387 174.071,250.529 199.447,250.529 191.96,262.819 192.771,263.314 200.56,250.529 
				226.083,250.529 222.306,262.928 223.215,263.205 227.076,250.529 252.681,250.529 252.681,263.066 253.631,263.066 
				253.631,250.529 279.235,250.529 283.096,263.205 284.005,262.928 280.228,250.529 305.752,250.529 313.54,263.314 
				314.352,262.819 306.864,250.529 332.241,250.529 343.991,263.387 344.692,262.746 333.528,250.529 358.712,250.529 
				374.435,263.434 375.038,262.699 360.209,250.529 385.171,250.529 404.871,263.463 405.393,262.669 386.902,250.529 
				411.623,250.529 			"/>
		</g>
		<g>
			<path style="fill:#FEF7FF;" d="M93.502,266.566c-1.933,0-3.5-1.567-3.5-3.5v-43.652c0-11.731-4.655-19.217-7.859-19.217
				c-3.204,0-7.858,7.486-7.858,19.217c0,1.933-1.567,3.5-3.5,3.5s-3.5-1.567-3.5-3.5c0-14.946,6.388-26.217,14.858-26.217
				c8.471,0,14.859,11.271,14.859,26.217v43.652C97.002,265,95.435,266.566,93.502,266.566z"/>
		</g>
		<g>
			<path style="fill:#FEF7FF;" d="M150.401,266.566c-1.933,0-3.5-1.567-3.5-3.5v-43.652c0-11.731-4.655-19.217-7.859-19.217
				c-3.204,0-7.858,7.486-7.858,19.217c0,1.933-1.567,3.5-3.5,3.5s-3.5-1.567-3.5-3.5c0-14.946,6.388-26.217,14.858-26.217
				c8.471,0,14.859,11.271,14.859,26.217v43.652C153.901,265,152.334,266.566,150.401,266.566z"/>
		</g>
		<path style="fill:#F6CBFA;" d="M452.5,260.28l-0.005-0.495H54.066l-0.215,24.24l0,0.032l0.004,0.031
			c0.313,2.645,2.457,5.324,5.952,5.324h386.7c3.46,0,5.486-2.587,5.903-4.992C452.746,282.485,452.51,261.185,452.5,260.28z"/>
		<g>
			<path style="fill:#FEF7FF;" d="M70.785,302.875c-1.933,0-3.5-1.567-3.5-3.5v-79.961c0-1.933,1.567-3.5,3.5-3.5s3.5,1.567,3.5,3.5
				v79.961C74.285,301.309,72.718,302.875,70.785,302.875z"/>
		</g>
		<g>
			<path style="fill:#FEF7FF;" d="M127.684,302.875c-1.933,0-3.5-1.567-3.5-3.5v-79.961c0-1.933,1.567-3.5,3.5-3.5
				s3.5,1.567,3.5,3.5v79.961C131.184,301.309,129.617,302.875,127.684,302.875z"/>
		</g>
	</g>
	<g>
		<g>
			<g>
				<path style="fill:#F8E6FA;" d="M453.522,287.116c-31.391,0-31.391-17.762-62.782-17.762s-31.391,17.762-62.782,17.762
					c-31.39,0-31.39-17.762-62.779-17.762c-31.389,0-31.389,17.762-62.777,17.762v24.349h251.121V287.116z"/>
			</g>
			<g>
				<g>
					<path d="M453.523,287.446c-15.782,0-23.8-4.537-31.554-8.924c-7.679-4.345-15.62-8.838-31.229-8.838
						c-15.609,0-23.549,4.493-31.228,8.838c-7.754,4.387-15.772,8.924-31.554,8.924c-15.782,0-23.799-4.537-31.552-8.924
						c-7.679-4.345-15.619-8.838-31.227-8.838c-15.607,0-23.547,4.493-31.226,8.838c-7.753,4.387-15.77,8.924-31.552,8.924
						c-0.182,0-0.33-0.148-0.33-0.33c0-0.182,0.148-0.33,0.33-0.33c15.608,0,23.548-4.493,31.227-8.838
						c7.753-4.387,15.77-8.924,31.551-8.924c15.782,0,23.799,4.537,31.552,8.924c7.679,4.345,15.619,8.838,31.227,8.838
						c15.609,0,23.549-4.493,31.228-8.838c7.754-4.387,15.772-8.924,31.554-8.924c15.782,0,23.8,4.537,31.554,8.924
						c7.679,4.345,15.62,8.838,31.228,8.838c0.182,0,0.33,0.148,0.33,0.33C453.853,287.298,453.705,287.446,453.523,287.446z"/>
				</g>
				<g>
					<path d="M327.958,298.017c-15.782,0-23.799-4.537-31.552-8.924c-7.679-4.345-15.619-8.838-31.227-8.838
						c-15.607,0-23.547,4.493-31.226,8.838c-7.753,4.387-15.77,8.924-31.552,8.924c-0.182,0-0.33-0.148-0.33-0.33
						c0-0.182,0.148-0.33,0.33-0.33c15.608,0,23.548-4.493,31.227-8.838c7.753-4.387,15.77-8.924,31.551-8.924
						c15.782,0,23.799,4.537,31.552,8.924c7.679,4.345,15.619,8.838,31.227,8.838c15.609,0,23.549-4.493,31.228-8.838
						c7.754-4.387,15.772-8.924,31.554-8.924c15.783,0,23.8,4.537,31.554,8.924c0.999,0.565,1.999,1.131,3.014,1.687
						c0.16,0.088,0.218,0.288,0.131,0.448c-0.088,0.159-0.288,0.217-0.448,0.131c-1.018-0.558-2.02-1.125-3.022-1.691
						c-7.679-4.345-15.62-8.838-31.229-8.838c-15.609,0-23.549,4.493-31.228,8.838C351.758,293.48,343.74,298.017,327.958,298.017z"
						/>
				</g>
				<g>
					<path d="M327.958,308.587c-15.782,0-23.799-4.537-31.552-8.924c-7.679-4.345-15.619-8.838-31.227-8.838
						c-15.607,0-23.547,4.493-31.226,8.838c-7.753,4.387-15.77,8.924-31.552,8.924c-0.182,0-0.33-0.148-0.33-0.33
						c0-0.182,0.148-0.33,0.33-0.33c15.608,0,23.548-4.493,31.227-8.838c7.753-4.387,15.77-8.924,31.551-8.924
						c15.782,0,23.799,4.537,31.552,8.924c7.679,4.345,15.619,8.838,31.227,8.838c15.609,0,23.549-4.493,31.228-8.838
						c7.754-4.387,15.772-8.924,31.554-8.924c0.182,0,0.33,0.148,0.33,0.33c0,0.182-0.148,0.33-0.33,0.33
						c-15.609,0-23.549,4.493-31.228,8.838C351.758,304.05,343.74,308.587,327.958,308.587z"/>
				</g>
			</g>
		</g>
		<g>
			<g>
				<path style="fill:#F8E6FA;" d="M54.542,287.116c31.391,0,31.391-17.762,62.782-17.762s31.391,17.762,62.782,17.762
					c31.39,0,31.39-17.762,62.779-17.762c31.389,0,31.389,17.762,62.777,17.762v24.349H54.542V287.116z"/>
			</g>
			<g>
				<g>
					<path d="M54.542,287.446c15.782,0,23.8-4.537,31.554-8.924c7.679-4.345,15.62-8.838,31.229-8.838
						c15.609,0,23.549,4.493,31.229,8.838c7.754,4.387,15.771,8.924,31.554,8.924c15.782,0,23.799-4.537,31.552-8.924
						c7.679-4.345,15.619-8.838,31.227-8.838c15.607,0,23.547,4.493,31.226,8.838c7.753,4.387,15.77,8.924,31.552,8.924
						c0.182,0,0.33-0.148,0.33-0.33c0-0.182-0.148-0.33-0.33-0.33c-15.608,0-23.548-4.493-31.226-8.838
						c-7.753-4.387-15.77-8.924-31.551-8.924c-15.782,0-23.799,4.537-31.552,8.924c-7.679,4.345-15.619,8.838-31.227,8.838
						c-15.609,0-23.549-4.493-31.229-8.838c-7.754-4.387-15.771-8.924-31.554-8.924c-15.782,0-23.8,4.537-31.554,8.924
						c-7.679,4.345-15.62,8.838-31.228,8.838c-0.182,0-0.33,0.148-0.33,0.33C54.211,287.298,54.359,287.446,54.542,287.446z"/>
				</g>
				<g>
					<path d="M180.106,298.017c15.782,0,23.799-4.537,31.552-8.924c7.679-4.345,15.619-8.838,31.227-8.838
						c15.607,0,23.547,4.493,31.226,8.838c7.753,4.387,15.77,8.924,31.552,8.924c0.182,0,0.33-0.148,0.33-0.33
						c0-0.182-0.148-0.33-0.33-0.33c-15.608,0-23.548-4.493-31.226-8.838c-7.753-4.387-15.77-8.924-31.551-8.924
						c-15.782,0-23.799,4.537-31.552,8.924c-7.679,4.345-15.619,8.838-31.227,8.838c-15.609,0-23.549-4.493-31.229-8.838
						c-7.754-4.387-15.771-8.924-31.554-8.924c-15.783,0-23.8,4.537-31.554,8.924c-0.999,0.565-1.998,1.131-3.014,1.687
						c-0.16,0.088-0.218,0.288-0.131,0.448c0.088,0.159,0.288,0.217,0.448,0.131c1.018-0.558,2.02-1.125,3.022-1.691
						c7.679-4.345,15.62-8.838,31.229-8.838c15.609,0,23.549,4.493,31.229,8.838C156.306,293.48,164.324,298.017,180.106,298.017z"
						/>
				</g>
				<g>
					<path d="M180.106,308.587c15.782,0,23.799-4.537,31.552-8.924c7.679-4.345,15.619-8.838,31.227-8.838
						c15.607,0,23.547,4.493,31.226,8.838c7.753,4.387,15.77,8.924,31.552,8.924c0.182,0,0.33-0.148,0.33-0.33
						c0-0.182-0.148-0.33-0.33-0.33c-15.608,0-23.548-4.493-31.226-8.838c-7.753-4.387-15.77-8.924-31.551-8.924
						c-15.782,0-23.799,4.537-31.552,8.924c-7.679,4.345-15.619,8.838-31.227,8.838c-15.609,0-23.549-4.493-31.229-8.838
						c-7.754-4.387-15.771-8.924-31.554-8.924c-0.182,0-0.33,0.148-0.33,0.33c0,0.182,0.148,0.33,0.33,0.33
						c15.609,0,23.549,4.493,31.229,8.838C156.306,304.05,164.324,308.587,180.106,308.587z"/>
				</g>
			</g>
		</g>
	</g>
	<g>
		<g>
			<path style="fill:#FF6145;" d="M388.983,144.327c0,0,46.544-0.895,46.544,10.443c0,11.338-59.075,17.305-59.075,17.305
				L388.983,144.327z"/>
			<g>
				<ellipse cx="268.523" cy="345.753" rx="131.564" ry="72.98"/>
			</g>
			<path style="fill:#FAB63B;" d="M380.622,181.626c-0.597-19.99,14.113-17.376,14.113-46.071c0-22.831-18.508-41.338-41.338-41.338
				c-22.83,0-54.059,13.542-54.059,61.665c0,55.788,26.6,90.834,32.024,115.463c-18.672-5.642-40.08-8.848-62.839-8.848
				c-72.661,0-131.564,32.674-131.564,72.98c0,40.306,58.903,72.98,131.564,72.98s131.564-32.674,131.564-72.98
				C410.548,287.354,381.203,201.071,380.622,181.626z"/>
			<path style="fill:#FA943B;" d="M213.893,337.486c0,0,37.114,6.826,18.884-18.456c-18.23-25.281-76.019-22.064-76.019-22.064
				c-12.545,11.179-19.799,24.374-19.799,38.511c0,23.107,19.365,43.703,49.577,57.075
				C173.762,373.094,190.947,341.034,213.893,337.486z"/>
			<g>
				<ellipse cx="268.523" cy="324.413" rx="66.452" ry="30.011"/>
			</g>
			<path style="fill:#FA943B;" d="M331.361,271.344c-3.564-16.183-16.271-36.864-24.567-64.973
				c-4.329-14.669,52.95-22.111,78.631,0.927c3.086,13.374,7.127,30.106,10.486,47.683c-8.452,14.365-9.927,15.554-13.024,21.277
				c-17.383,32.124-8.782,57.283-28.741,57.283C336.781,333.541,331.361,271.344,331.361,271.344z"/>
			<g>
				<g>
					<path d="M367.585,337.169c-0.112,0-0.223-0.05-0.296-0.145c-1.407-1.807-3.855-2.702-6.096-2.224
						c-0.203,0.043-0.402-0.086-0.445-0.289c-0.043-0.203,0.086-0.402,0.289-0.445c2.514-0.535,5.264,0.469,6.844,2.497
						c0.127,0.164,0.098,0.399-0.065,0.526C367.747,337.144,367.665,337.169,367.585,337.169z"/>
				</g>
				<g>
					<path d="M364.281,331.918c-0.152,0-0.295-0.093-0.351-0.244c-0.073-0.194,0.025-0.41,0.22-0.482
						c2.073-0.777,4.325-1.006,6.511-0.662c0.205,0.032,0.345,0.224,0.313,0.429c-0.033,0.205-0.23,0.344-0.429,0.313
						c-2.06-0.323-4.18-0.109-6.132,0.623C364.369,331.91,364.325,331.918,364.281,331.918z"/>
				</g>
				<g>
					<path d="M338.617,334.644c-0.138,0-0.271-0.077-0.336-0.209c-0.092-0.185-0.016-0.411,0.169-0.502
						c2.158-1.07,4.7-1.227,6.974-0.436c0.195,0.068,0.299,0.282,0.23,0.478c-0.068,0.196-0.281,0.3-0.478,0.23
						c-2.055-0.715-4.444-0.566-6.394,0.399C338.729,334.631,338.672,334.644,338.617,334.644z"/>
				</g>
				<g>
					<path d="M340.68,340.112c-0.049,0-0.099-0.01-0.147-0.03c-0.19-0.081-0.279-0.301-0.198-0.492
						c1.008-2.363,3.407-4.057,5.971-4.215c0.2-0.016,0.384,0.144,0.397,0.352c0.013,0.207-0.145,0.384-0.352,0.397
						c-2.287,0.141-4.428,1.652-5.328,3.76C340.964,340.027,340.825,340.112,340.68,340.112z"/>
				</g>
			</g>
			<path d="M369.748,128.717c0,2.976-2.412,5.388-5.388,5.388c-2.976,0-5.388-2.412-5.388-5.388c0-2.976,2.412-5.388,5.388-5.388
				c1.488,0,2.835,0.603,3.81,1.578c0.547,0.548-3.312,3.069-3.04,3.81C365.342,129.296,369.748,128.065,369.748,128.717z"/>
			<g>
				<g>
					<path style="fill:#FFFFFF;" d="M232.23,382.616c-6.071,0.724-30.703-1.955-26.694-11.308c6.557-4.106,20.757,2.28,27.788,4.74
						C236.469,377.395,235.579,382.375,232.23,382.616z"/>
					<path style="fill:#FFFFFF;" d="M370.233,350.913c-10.864,17.681-31.659,25.67-50.93,30.141
						c-4.983,0.211-22.147,5.99-22.928-0.941c-0.036-1.582,1.032-2.936,2.497-3.318c17.878-4.842,36.086-9.135,52.179-18.542
						c5.229-3.081,9.94-6.773,13.779-11.192C367.335,344.043,372.27,347.588,370.233,350.913z"/>
				</g>
				<g>
					<path style="fill:#FFFFFF;" d="M349.179,100.836c3.238-2.628,12.852-1.083,9.425,4.345
						C355.696,108.439,344.412,105.845,349.179,100.836z"/>
					<path style="fill:#FFFFFF;" d="M310.684,127.935c3.252-18.202,30.454-27.615,24.256-17.271
						c-5.531,3.312-10.657,6.909-14.772,11.88c-1.882,2.203-3.72,4.833-5.273,7.224
						C313.544,131.919,310.031,130.349,310.684,127.935z"/>
					<path style="fill:#FFFFFF;" d="M415.034,149.719c3.371-2.135,13.68-0.705,11.351,4.705
						C423.566,157.822,409.834,155.059,415.034,149.719z"/>
				</g>
			</g>
		</g>
		<g>
			<defs>
				<path id="SVGID_1_" d="M367.714,337.961c-23.994,5.56-34.011-6.829-36.353-3.761c-8.985,11.769-33.725,20.224-62.838,20.224
					c-26.712,0-49.743-7.118-60.3-17.383c-41.891,19.83-40.708,50.82-102.693,52.095C92.8,389.398,63.703,263.844,90.958,235.941
					c39.007-39.935,169.182-51.899,215.588-54.405c-26.7-21.925-0.653-27.521,1.836-27.521c8.433,0,23.346,7.112,38.328,18.646
					c5.837-4.872,25.35,1.846,28.108,3.426c13.379,7.668,14.309,17.808,16.106,29.681c35.65,31.169,41.883,54.156,1.912,37.223
					C395.788,278.414,374.739,336.333,367.714,337.961z"/>
			</defs>
			<clipPath id="SVGID_00000163074146062959436330000002575095397236267904_">
				<use xlink:href="#SVGID_1_"  style="overflow:visible;"/>
			</clipPath>
			<g style="clip-path:url(#SVGID_00000163074146062959436330000002575095397236267904_);">
				<g>
					
						<ellipse transform="matrix(0.0832 -0.9965 0.9965 0.0832 125.7125 544.9091)" style="fill:#973AC1;" cx="359.015" cy="204.13" rx="28.201" ry="28.201"/>
				</g>
				<g>
					<path style="fill:#CF4192;" d="M417.096,242.009c-3.112,5.911-31.656-7.338-63.754-29.593
						c-32.098-22.255-55.596-45.089-52.484-51c3.112-5.911,31.656,7.338,63.754,29.593S420.208,236.098,417.096,242.009z"/>
				</g>
				<g>
					<path d="M415.81,244.45c-3.112,5.911-31.656-7.338-63.754-29.593c-32.098-22.255-55.596-45.088-52.484-50.999
						c3.112-5.911,31.656,7.338,63.754,29.593C395.425,215.706,418.922,238.539,415.81,244.45z"/>
				</g>
				<g>
					<path style="fill:#7886FF;" d="M384.226,223.309c-9.317-10.168-56.963-40.295-58.907-29.748l0.374,0.762
						c-5.888,1.416-10.265,6.713-10.265,13.036c0,2.652,0.773,5.123,2.102,7.204c-9.27,1.148-16.447,9.046-16.447,18.627
						c0,10.369,8.987,15.355,18.775,18.775c8.523,2.979,40.26,12.419,40.26,12.419c12.368,2.28,28.768-7.856,31.048-20.225
						C392.636,236.192,389.761,228.434,384.226,223.309z"/>
				</g>
				<g>
					<g>
						<g>
							<path style="fill:#FAB63B;" d="M314.951,227.84c0,2.757-4.941,2.757-4.941,0c0-2.757,1.106-4.992,2.47-4.992
								C313.845,222.848,314.951,225.083,314.951,227.84z"/>
						</g>
						<g>
							<path style="fill:#FF94CC;" d="M349.295,217.707c-1.581,3.784,0.205,8.134,3.99,9.715c3.784,1.581,8.134-0.205,9.715-3.99
								c1.581-3.784-0.205-8.134-3.99-9.715C355.226,212.136,350.876,213.923,349.295,217.707z"/>
						</g>
						<g>
							<path style="fill:#FF94CC;" d="M347.891,248.326l0.775-20.925l-20.318,8.884l-0.082,7.06l-3.954-1.068
								c0,0-12.943,11.36-0.963,17.691c15.156,8.01,31.55-8.341,31.55-8.341L347.891,248.326z"/>
						</g>
						<g>
							<path d="M344.982,229.012c0,0-7.039,14.066-16.698,11.481l0.062-4.207L344.982,229.012z"/>
						</g>
						<g>
							<path style="fill:#FF94CC;" d="M310.129,212.765c-1.248,12.007,7.474,22.751,19.481,23.999
								c12.007,1.247,22.751-7.474,23.999-19.481c1.247-12.007-7.475-22.751-19.481-23.999
								C322.121,192.036,311.376,200.758,310.129,212.765z"/>
						</g>
						<g>
							<path d="M341.113,206.393c-0.106,0-0.213-0.018-0.319-0.056c-0.039-0.014-3.911-1.403-6.422-1.184
								c-0.513,0.043-0.969-0.335-1.015-0.851c-0.045-0.515,0.335-0.969,0.851-1.015c2.923-0.261,7.051,1.226,7.225,1.29
								c0.486,0.176,0.737,0.713,0.56,1.199C341.855,206.156,341.496,206.393,341.113,206.393z"/>
						</g>
						<g>
							<path d="M323.354,203.717c-0.122,0-0.246-0.024-0.366-0.075c-2.32-0.987-6.432-0.862-6.473-0.859
								c-0.518-0.001-0.95-0.388-0.967-0.904c-0.018-0.517,0.387-0.95,0.903-0.968c0.188-0.004,4.566-0.141,7.27,1.008
								c0.476,0.203,0.698,0.752,0.496,1.228C324.065,203.503,323.718,203.717,323.354,203.717z"/>
						</g>
						<g>
							<path d="M333.818,214.182c-0.1,0.961,0.599,1.822,1.56,1.922c0.962,0.1,1.822-0.598,1.922-1.56
								c0.1-0.962-0.599-1.822-1.56-1.922C334.778,212.521,333.918,213.22,333.818,214.182z"/>
						</g>
						<g>
							<path d="M326.225,220.044c-0.011,0-0.023,0-0.035-0.002c-0.552-0.057-1.05-0.326-1.4-0.758
								c-0.35-0.432-0.512-0.974-0.454-1.526c0.119-1.141,1.148-1.977,2.284-1.854c0.181,0.019,0.313,0.181,0.294,0.362
								c-0.019,0.181-0.188,0.316-0.362,0.294c-0.779-0.072-1.478,0.487-1.56,1.266c-0.039,0.377,0.071,0.747,0.31,1.042
								c0.239,0.294,0.579,0.479,0.956,0.518c0.181,0.019,0.313,0.181,0.294,0.362C326.535,219.917,326.392,220.044,326.225,220.044
								z"/>
						</g>
						<g>
							<path d="M316.974,212.432c-0.1,0.962,0.599,1.822,1.56,1.922c0.961,0.1,1.822-0.598,1.922-1.56
								c0.1-0.962-0.599-1.822-1.56-1.922C317.935,210.771,317.074,211.47,316.974,212.432z"/>
						</g>
						<g>
							<path d="M326.565,228.755c-2.589,0-3.507-2.229-3.518-2.256c-0.067-0.169,0.016-0.36,0.185-0.427
								c0.167-0.068,0.36,0.014,0.429,0.183c0.043,0.106,1.09,2.591,4.333,1.609c0.173-0.052,0.359,0.046,0.412,0.22
								c0.053,0.174-0.046,0.359-0.22,0.412C327.585,228.679,327.047,228.755,326.565,228.755z"/>
						</g>
						<g>
							<g>
								<path d="M353.2,220.449c-0.042,0-0.085-0.008-0.128-0.025c-0.168-0.07-0.247-0.264-0.177-0.432
									c0.423-1.012,1.215-1.799,2.229-2.216c1.015-0.418,2.131-0.413,3.143,0.009c0.168,0.07,0.247,0.264,0.177,0.432
									c-0.071,0.168-0.263,0.247-0.432,0.177c-0.85-0.356-1.787-0.358-2.638-0.008c-0.852,0.35-1.516,1.01-1.871,1.86
									C353.452,220.373,353.329,220.449,353.2,220.449z"/>
							</g>
							<g>
								<path d="M356.035,224.19c-0.041,0-0.082-0.008-0.122-0.024c-0.169-0.067-0.251-0.26-0.184-0.429
									c0.99-2.472-1.074-5.264-1.095-5.292c-0.109-0.146-0.08-0.352,0.065-0.462c0.145-0.108,0.352-0.082,0.462,0.065
									c0.095,0.126,2.309,3.114,1.18,5.934C356.29,224.112,356.166,224.19,356.035,224.19z"/>
							</g>
						</g>
						<g>
							<path style="fill:#FAB63B;" d="M357.368,231.37c0,2.757-4.941,2.757-4.941,0c0-2.757,1.106-4.992,2.47-4.992
								C356.262,226.378,357.368,228.613,357.368,231.37z"/>
						</g>
					</g>
					<g>
						<path style="fill:#7886FF;" d="M332.353,193.017c0,0,6.57,18.951,21.649,18.508
							C354.001,211.526,355.302,191.41,332.353,193.017z"/>
					</g>
					<g>
						<path style="fill:#7886FF;" d="M336.127,199.135c0,0-25.153,7.256-23.09-9.917c2.063-17.173,25.161-3.352,25.776,3.96
							C339.429,200.491,336.127,199.135,336.127,199.135z"/>
					</g>
					<g>
						<g>
							<g>
								<path d="M326.37,209.719c0.106-0.148-0.154,0.176-0.04,0.051c0.037-0.04,0.072-0.081,0.111-0.12
									c0.033-0.033,0.067-0.062,0.101-0.094c0.146-0.138-0.146,0.095-0.06,0.044c0.083-0.049,0.161-0.106,0.247-0.151
									c0.022-0.011,0.103-0.065,0.12-0.057c-0.021-0.01-0.272,0.104-0.074,0.036c0.084-0.029,0.169-0.052,0.255-0.071
									c0.043-0.009,0.088-0.014,0.131-0.024c-0.301,0.071-0.183,0.022-0.09,0.015c0.089-0.007,0.178-0.01,0.266-0.008
									c0.044,0.001,0.089,0.003,0.133,0.007c0.231,0.017-0.147-0.029-0.067-0.013c0.183,0.037,0.357,0.079,0.534,0.141
									c0.155,0.055-0.233-0.111-0.077-0.032c0.039,0.02,0.078,0.038,0.117,0.059c0.077,0.041,0.151,0.086,0.222,0.135
									c0.075,0.052,0.144,0.146-0.065-0.053c0.031,0.029,0.066,0.055,0.097,0.084c0.063,0.058,0.119,0.121,0.177,0.184
									c0.114,0.126-0.14-0.202-0.053-0.068c0.023,0.036,0.047,0.07,0.069,0.107c0.026,0.043,0.047,0.087,0.071,0.131
									c0.1,0.185-0.086-0.223-0.025-0.06c0.181,0.489,0.685,0.875,1.23,0.698c0.479-0.155,0.893-0.705,0.698-1.23
									c-0.402-1.084-1.36-1.856-2.507-2.029c-0.572-0.086-1.16-0.079-1.711,0.124c-0.644,0.237-1.139,0.629-1.537,1.186
									c-0.305,0.427-0.089,1.132,0.359,1.368C325.518,210.35,326.044,210.174,326.37,209.719L326.37,209.719z"/>
							</g>
						</g>
						<g>
							<g>
								<path d="M344.628,213.184c2.564,0.132,5.128,0.264,7.692,0.396c0.369,0.019,0.738,0.038,1.107,0.057c0.54,0.028,1-0.48,1-1
									c0-0.565-0.458-0.972-1-1c-2.564-0.132-5.128-0.264-7.692-0.396c-0.369-0.019-0.738-0.038-1.107-0.057
									c-0.54-0.028-1,0.48-1,1C343.628,212.749,344.087,213.156,344.628,213.184L344.628,213.184z"/>
							</g>
						</g>
						<g>
							<g>
								<path d="M325.668,212.268c-0.244,4.376-3.99,7.725-8.366,7.481c-4.376-0.244-7.725-3.99-7.481-8.366
									c0.244-4.376,3.99-7.725,8.366-7.481C322.564,204.146,325.913,207.892,325.668,212.268z"/>
							</g>
							<g>
								<path style="fill:#FFFFFF;" d="M321.614,204.896l-11.628,8.604c0.333,2.04,1.646,3.668,3.242,4.877l12.176-8.913
									C324.704,207.557,323.434,205.798,321.614,204.896z"/>
							</g>
							<g>
								<path d="M317.75,220.091c-0.154,0-0.31-0.004-0.466-0.013c-2.204-0.124-4.229-1.098-5.7-2.744
									c-1.472-1.646-2.214-3.766-2.091-5.971c0.123-2.204,1.097-4.229,2.743-5.701c1.645-1.472,3.763-2.215,5.971-2.091
									c4.551,0.254,8.046,4.163,7.792,8.714C325.753,216.681,322.098,220.091,317.75,220.091z M317.736,204.219
									c-1.872,0-3.654,0.679-5.06,1.937c-1.515,1.354-2.411,3.217-2.524,5.246c-0.113,2.028,0.57,3.98,1.924,5.494
									c1.354,1.515,3.217,2.411,5.246,2.524c4.186,0.236,7.784-2.983,8.018-7.17c0.113-2.028-0.57-3.979-1.924-5.494
									c-1.354-1.515-3.217-2.411-5.246-2.525C318.025,204.223,317.879,204.219,317.736,204.219z"/>
							</g>
						</g>
						<g>
							<g>
								<path d="M344.361,214.403c-0.244,4.376-3.99,7.725-8.366,7.481c-4.376-0.245-7.725-3.99-7.481-8.366
									c0.245-4.376,3.99-7.725,8.366-7.481C341.256,206.281,344.606,210.027,344.361,214.403z"/>
							</g>
							<g>
								<path style="fill:#FFFFFF;" d="M340.307,207.031l-11.628,8.604c0.333,2.04,1.646,3.668,3.242,4.877l12.176-8.913
									C343.397,209.693,342.127,207.933,340.307,207.031z"/>
							</g>
							<g>
								<path d="M336.443,222.227c-0.155,0-0.31-0.004-0.467-0.013c-2.204-0.123-4.228-1.097-5.7-2.743
									c-1.472-1.645-2.214-3.766-2.091-5.971c0.123-2.204,1.097-4.229,2.743-5.701c1.645-1.472,3.763-2.215,5.971-2.091
									c4.55,0.254,8.046,4.164,7.792,8.714l0,0C344.445,218.816,340.792,222.227,336.443,222.227z M336.428,206.355
									c-1.871,0-3.654,0.679-5.06,1.936c-1.515,1.354-2.411,3.217-2.524,5.246c-0.113,2.028,0.57,3.979,1.924,5.494
									c1.354,1.515,3.217,2.411,5.246,2.524c4.189,0.244,7.784-2.981,8.018-7.169c0.234-4.187-2.983-7.784-7.17-8.018
									C336.717,206.358,336.572,206.355,336.428,206.355z M344.361,214.403h0.008H344.361z"/>
							</g>
						</g>
					</g>
				</g>
				<g>
					<g>
						<g>
							<path style="fill:#FF94CC;" d="M253.975,223.584c0,0,1.446-1.641,4.277-2.475c2.3-0.678,6.328,16.067,11.55,27.713
								c4.799,10.704,10.906,24.212,10.906,24.212l31.064-29.183c5.945-4.5,10.054-2.154,10.054-2.154s4.733,27.405-0.798,32.108
								c-14.44,12.276-29.064,28.331-37.905,29.5c-10.568,1.397-16.686-15.67-28.743-51.643c-0.546-1.629-3.564-1.539-5.117-5.455
								C244.988,235.366,249.031,227.369,253.975,223.584z"/>
						</g>
						<g>
							<g>
								<path d="M280.356,272.918c-0.437,1.66-0.762,3.345-0.983,5.047c-0.023,0.178,0.168,0.328,0.33,0.33
									c0.197,0.002,0.307-0.154,0.33-0.33c0.214-1.643,0.538-3.27,0.96-4.872C281.1,272.683,280.464,272.507,280.356,272.918
									L280.356,272.918z"/>
							</g>
						</g>
					</g>
				</g>
				<g>
					<g>
						<path style="fill:#FF94CC;" d="M274.586,307.456c-4.509,0.192-9.506,2.569-9.506,2.569s-52.107-18.484-70.89-23.029
							c-20.971-5.075-85.483-11.893-85.483-11.893s-3.407-5.722-8.198-8.26c-2.026-1.073-4.493-0.816-6.279-0.102
							c-0.948,0.379-2.022,0.237-2.547,0.832c-2.202,2.499,3.751,10.129,8.288,18.651c2.89,5.427,4.195,12.236,5.725,15.018
							c2.751,5.005,6.989,5.531,13.899,7.676c0,0,35.684,5.031,68.609,17.596c30.453,11.622,53.551,28.099,63.176,30.333
							c15.757,3.657,29.195-0.641,45.352-17.468l-22.147-32.04"/>
					</g>
					<g>
						<path d="M98.005,270.592c-0.131,0-0.255-0.079-0.307-0.208c-0.673-1.696-1.591-2.732-2.728-3.081
							c-1.581-0.485-3.085,0.531-3.1,0.541c-0.149,0.103-0.355,0.065-0.459-0.085c-0.103-0.15-0.065-0.355,0.085-0.458
							c0.071-0.05,1.772-1.204,3.66-0.63c1.342,0.408,2.403,1.576,3.155,3.471c0.067,0.169-0.016,0.361-0.185,0.428
							C98.087,270.585,98.046,270.592,98.005,270.592z"/>
					</g>
					<g>
						<path d="M100.153,269.988c-0.131,0-0.255-0.079-0.307-0.208c-0.71-1.791-1.647-2.872-2.784-3.212
							c-1.397-0.419-2.631,0.435-2.643,0.443c-0.149,0.106-0.354,0.07-0.459-0.081c-0.105-0.149-0.069-0.355,0.081-0.459
							c0.061-0.043,1.514-1.044,3.211-0.535c1.34,0.401,2.419,1.612,3.207,3.601c0.067,0.169-0.016,0.361-0.185,0.428
							C100.235,269.98,100.194,269.988,100.153,269.988z"/>
					</g>
					<g>
						<path d="M102.269,269.988c-0.131,0-0.255-0.079-0.307-0.208c-0.943-2.38-2.408-3.471-4.231-3.159
							c-0.178,0.033-0.35-0.089-0.381-0.269c-0.031-0.18,0.089-0.351,0.269-0.381c1.512-0.259,3.601,0.145,4.957,3.566
							c0.067,0.169-0.016,0.361-0.185,0.428C102.351,269.98,102.31,269.988,102.269,269.988z"/>
					</g>
				</g>
				<g>
					<g>
						<path style="fill:#973AC1;" d="M274.586,307.338c4.12-9.375,16.315-32.379,16.315-32.379s-2.026-3.635-0.306-8.036
							c3.987-10.203,30.358-25.431,30.358-25.431l7.042,1.648c0,0-13.446,8.325-6.395,13.887c7.051,5.562,26.291-8.701,26.291-8.701
							l5.719,2.695c-6.578,11.893-14.672,21.336-4.653,32.546l-27.818,44.696c-4.687-7.649-36.931-5.878-52.91,19.124
							C268.228,347.388,267.176,324.199,274.586,307.338z"/>
					</g>
					<g>
						<path d="M320.098,287.673c-3.417,0-8.932-1.296-14.704-7.964c-0.119-0.138-0.104-0.346,0.034-0.465
							c0.137-0.12,0.346-0.104,0.465,0.034c9.07,10.477,17.373,7.294,17.455,7.259c0.169-0.07,0.361,0.013,0.43,0.182
							c0.068,0.169-0.013,0.361-0.181,0.43C323.563,287.161,322.244,287.673,320.098,287.673z"/>
					</g>
				</g>
				<g>
					<g>
						<path style="fill:#FF94CC;" d="M321.138,328.263c4.637,19.196-26.282,56.229-57.753,38.84
							c-32.494-17.955-55.691-33.705-55.691-33.705l-48.427,32.822c1.093,5.262-2.405,10.379-7.705,11.271l-43.621,7.34
							c-2.621,0.441-4.604-2.279-3.416-4.657c1.558-3.121,4.872-5.141,10.561-8.769c0,0,56.041-61.29,67.787-74.688
							c15.231-17.373,28.356-10.127,40.412-5.51c38.911,14.901,76.242,33.206,76.242,33.206S315.451,320.312,321.138,328.263z"/>
					</g>
					<g>
						<path d="M107.933,384.9c-0.108,0-0.213-0.053-0.276-0.149c-2.503-3.823,2.409-7.335,2.458-7.37
							c0.15-0.104,0.354-0.069,0.46,0.08c0.104,0.15,0.069,0.355-0.08,0.46c-0.183,0.128-4.439,3.18-2.286,6.469
							c0.1,0.152,0.057,0.357-0.095,0.457C108.057,384.883,107.995,384.9,107.933,384.9z"/>
					</g>
					<g>
						<path d="M163.73,318.341c-0.081,0-0.162-0.03-0.226-0.089c-0.133-0.124-0.14-0.333-0.015-0.466
							c0.074-0.079,7.529-8.046,19.136-21.286c6.392-7.29,13.014-10.927,20.247-11.118c0.204,0.008,0.334,0.14,0.339,0.321
							c0.004,0.182-0.139,0.334-0.321,0.339c-7.039,0.186-13.504,3.749-19.768,10.894c-11.615,13.249-19.077,21.222-19.151,21.301
							C163.905,318.306,163.818,318.341,163.73,318.341z"/>
					</g>
					<g>
						<path d="M275.856,313.793c-0.046,0-0.094-0.01-0.139-0.031l-9.024-4.174c-0.165-0.076-0.237-0.272-0.161-0.438
							c0.076-0.165,0.272-0.237,0.438-0.161l9.024,4.174c0.165,0.076,0.237,0.272,0.161,0.438
							C276.1,313.722,275.98,313.793,275.856,313.793z"/>
					</g>
					<g>
						<path d="M192.894,301.315c-0.02,0-0.039-0.002-0.059-0.005c-1.897-0.341-3.662-1.31-4.97-2.728
							c-0.124-0.134-0.115-0.343,0.019-0.466c0.134-0.123,0.343-0.115,0.466,0.019c1.211,1.313,2.845,2.209,4.602,2.525
							c0.179,0.032,0.298,0.204,0.266,0.383C193.189,301.203,193.051,301.315,192.894,301.315z"/>
					</g>
				</g>
				<g>
					<g>
						<path style="fill:#FF94CC;" d="M365.456,322.406c2.129-14.331,6.384-29.304,4.53-48.124c-1.854-18.82-18.49-24.19-18.49-24.19
							c-9.577,8.568-19.139,32.445-2.907,35.617c0,0-3.637,26.103-3.637,37.794C344.952,338.722,362.892,339.665,365.456,322.406z"
							/>
					</g>
				</g>
				<g>
					<path style="fill:#FF94CC;" d="M307.671,251.876c-2.309,1.472,1.608,8.413,1.608,8.413l7.555,0.068
						C316.834,260.357,310.517,250.062,307.671,251.876z"/>
				</g>
				<g>
					<g>
						<path style="fill:#FFFFFF;" d="M303.989,283.082c-6.883,0-17.611-1.446-24.902-4.621
							c-10.998-4.79-16.833-13.739-17.793-15.873c-1.52-3.454-2.034-33.971-1.077-42.972c0.344,0.262-0.484-3.068,1.838-2.351
							c3.652,1.129,8.064,6.279,15.077,9.316c5.734,2.483,12.866,4.391,18.598,5.925c4.269,1.142,9.551,2.555,10.652,3.426
							c1.533,4.545,1.759,41.044,0.356,47.031C306.259,283.018,305.404,283.082,303.989,283.082z"/>
					</g>
					<g>
						<path style="fill:#CF4192;" d="M308.569,292.801c-1.996,0.96-19.52,0.462-31.165-4.609
							c-12.254-5.337-18.63-15.341-19.665-17.641c-2.005-4.454-1.36-48.898,0-51.955c0.726-1.632,6.972,6.281,19.21,11.58
							c12.238,5.298,30.467,7.982,31.62,10.67C310.483,245.305,310.766,291.744,308.569,292.801z"/>
					</g>
					<g>
						<path d="M277.403,283.638c-0.182,0-0.33-0.148-0.33-0.33v-49.824c0-0.182,0.148-0.33,0.33-0.33s0.33,0.148,0.33,0.33v49.824
							C277.733,283.49,277.586,283.638,277.403,283.638z"/>
					</g>
				</g>
				<g>
					<g>
						<g>
							<path style="fill:#FF94CC;" d="M352.698,306.349l-25.12-36.166c0,0-5.201-7.888-12.557-10.621
								c-7.356-2.732-18.24-2.296-18.662,0.605c-0.422,2.901,10.574,4.573,10.574,4.573s-11.286-1.645-11.615,1.334
								c-0.329,2.979,11.548,4.171,11.548,4.171s-10.249-0.856-10.437,1.882c-0.189,2.738,10.539,3.904,10.539,3.904
								s-9.982-1.245-10.343,1.952c-0.36,3.197,15.697,3.935,15.697,3.935s21.836,50.376,40.571,53.102L352.698,306.349z"/>
						</g>
						<g>
							<g>
								<path d="M313.447,264.918c-0.172-0.074-0.344-0.148-0.516-0.222c-0.038-0.024-0.079-0.037-0.123-0.039
									c-0.044-0.01-0.088-0.008-0.132,0.006c-0.077,0.021-0.16,0.08-0.197,0.152c-0.04,0.077-0.061,0.169-0.033,0.254
									c0.011,0.026,0.022,0.052,0.033,0.079c0.029,0.05,0.069,0.089,0.118,0.118c0.172,0.074,0.344,0.148,0.516,0.222
									c0.038,0.024,0.079,0.037,0.123,0.039c0.044,0.01,0.088,0.008,0.132-0.006c0.077-0.021,0.16-0.08,0.197-0.152
									c0.04-0.077,0.061-0.169,0.033-0.254c-0.011-0.026-0.022-0.052-0.033-0.079
									C313.536,264.987,313.496,264.947,313.447,264.918L313.447,264.918z"/>
							</g>
						</g>
						<g>
							<g>
								<path d="M312.53,270.001c-0.186,0.019-0.373,0.038-0.559,0.056c-0.045-0.002-0.088,0.008-0.127,0.028
									c-0.041,0.013-0.076,0.036-0.106,0.068c-0.057,0.057-0.1,0.151-0.097,0.233c0.004,0.085,0.032,0.174,0.097,0.233
									c0.061,0.056,0.148,0.105,0.233,0.097c0.186-0.019,0.373-0.038,0.559-0.056c0.046,0.002,0.088-0.008,0.127-0.029
									c0.041-0.013,0.076-0.036,0.106-0.068c0.057-0.057,0.1-0.151,0.097-0.233c-0.004-0.085-0.032-0.174-0.097-0.233
									C312.702,270.042,312.615,269.993,312.53,270.001L312.53,270.001z"/>
							</g>
						</g>
						<g>
							<g>
								<path d="M312.333,275.767c-0.315-0.046-0.63-0.092-0.945-0.137c-0.091-0.013-0.171-0.015-0.254,0.033
									c-0.068,0.04-0.134,0.119-0.152,0.197c-0.019,0.085-0.015,0.179,0.033,0.254c0.043,0.067,0.115,0.14,0.197,0.152
									c0.315,0.046,0.63,0.092,0.945,0.137c0.091,0.013,0.171,0.015,0.254-0.033c0.068-0.04,0.134-0.119,0.152-0.197
									c0.019-0.085,0.015-0.179-0.033-0.254C312.487,275.852,312.416,275.779,312.333,275.767L312.333,275.767z"/>
							</g>
						</g>
					</g>
				</g>
				<g>
					<g>
						<path style="fill:#FF94CC;" d="M250.665,245.717c6.116,1.182,8.217-0.422,7.883-2.313c-0.48-2.716-3.627-3.451-7.281-3.894
							C247.613,239.066,248.004,245.202,250.665,245.717z"/>
					</g>
					<g>
						<path style="fill:#FF94CC;" d="M252.729,239.832c6.072,1.388,8.217-0.422,7.883-2.313c-0.48-2.716-3.627-3.452-7.281-3.894
							C249.678,233.181,248.576,238.883,252.729,239.832z"/>
					</g>
					<g>
						<path style="fill:#FF94CC;" d="M255.062,234.252c6.072,1.388,8.217-0.423,7.883-2.313c-0.48-2.716-3.627-3.452-7.281-3.894
							C252.011,227.602,250.909,233.303,255.062,234.252z"/>
					</g>
					<g>
						<path style="fill:#FF94CC;" d="M256.638,228.799c5.154,1.178,6.975-0.359,6.691-1.964c-0.408-2.305-3.079-2.93-6.18-3.306
							C254.048,223.154,253.113,227.994,256.638,228.799z"/>
					</g>
					<g>
						<path d="M254.462,246.534c-1.121,0-2.422-0.165-3.872-0.496c-0.177-0.041-0.289-0.218-0.248-0.396
							c0.041-0.178,0.217-0.287,0.396-0.248c3.345,0.766,5.894,0.606,6.988-0.436c0.426-0.405,0.598-0.924,0.496-1.499
							c-0.416-2.355-3.097-3.152-6.995-3.624c-0.181-0.022-0.31-0.186-0.288-0.367c0.022-0.181,0.187-0.311,0.367-0.288
							c3.377,0.409,7.025,1.102,7.566,4.164c0.14,0.792-0.105,1.535-0.691,2.092C257.417,246.166,256.141,246.534,254.462,246.534z"
							/>
					</g>
					<g>
						<path d="M256.528,240.652c-0.03,0-0.059,0-0.089,0c-0.182-0.001-0.329-0.15-0.328-0.333c0.001-0.183,0.148-0.332,0.333-0.328
							c1.65,0.02,2.896-0.366,3.489-1.067c0.32-0.379,0.443-0.845,0.354-1.348c-0.417-2.354-3.098-3.151-6.995-3.624
							c-0.181-0.022-0.31-0.187-0.288-0.367c0.022-0.181,0.189-0.31,0.367-0.288c3.377,0.409,7.024,1.102,7.566,4.164
							c0.124,0.703-0.049,1.356-0.5,1.89C259.933,239.946,258.846,240.652,256.528,240.652z"/>
					</g>
					<g>
						<path d="M258.86,235.072c-0.197,0-0.37-0.136-0.369-0.331c0-0.182,0.148-0.329,0.33-0.329c0,0,0.001,0,0.001,0
							c1.632,0,2.86-0.374,3.446-1.071c0.319-0.378,0.44-0.843,0.351-1.345c-0.416-2.355-3.097-3.152-6.995-3.624
							c-0.181-0.022-0.31-0.187-0.288-0.367c0.022-0.181,0.186-0.306,0.367-0.288c3.377,0.409,7.025,1.103,7.566,4.165
							c0.123,0.701-0.048,1.353-0.496,1.885C262.272,234.363,261.185,235.072,258.86,235.072z"/>
					</g>
					<g>
						<path d="M260.297,229.214c-0.188,0-0.362-0.138-0.362-0.331c0-0.182,0.148-0.329,0.33-0.329c0,0,0.001,0,0.001,0
							c1.304,0.022,2.275-0.294,2.736-0.842c0.245-0.29,0.338-0.648,0.27-1.035c-0.33-1.864-2.476-2.497-5.597-2.876
							c-0.181-0.022-0.31-0.187-0.288-0.367c0.022-0.181,0.189-0.311,0.367-0.288c2.751,0.334,5.723,0.9,6.168,3.416
							c0.102,0.577-0.046,1.136-0.415,1.575C263.092,228.629,262.199,229.214,260.297,229.214z"/>
					</g>
				</g>
			</g>
		</g>
		<g>
			<path style="fill:#FF6145;" d="M268.522,355.923c-26.707,0-51.004-7.207-61.9-18.36c-0.579-0.593-0.568-1.543,0.024-2.121
				c0.594-0.579,1.544-0.567,2.121,0.024c10.359,10.604,33.814,17.457,59.754,17.457c29.095,0,54.865-8.678,62.667-21.104
				c0.44-0.701,1.367-0.913,2.068-0.473c0.701,0.441,0.913,1.367,0.473,2.068C325.276,346.878,299.071,355.923,268.522,355.923z"/>
		</g>
	</g>
	<g>
		<g>
			<g>
				<g>
					<path d="M104.766,372.034c-1.159-2.711-5.059-5.909-7.992-3.729c-1.255,0.932-1.48,2.571-0.657,3.876
						c0.872,1.383,2.607,2.049,4.191,2.018c0.833-0.016,1.638-0.203,2.386-0.57c0.679-0.333,1.286-0.791,1.954-1.143
						c0.376-0.198,0.043-0.768-0.333-0.57c-0.971,0.513-1.826,1.225-2.912,1.489c-1.39,0.337-2.993,0.071-4.104-0.862
						c-1.063-0.892-1.446-2.502-0.351-3.528c1.099-1.03,2.715-0.853,3.956-0.2c1.454,0.765,2.648,2.042,3.293,3.552
						C104.363,372.757,104.931,372.421,104.766,372.034z"/>
				</g>
			</g>
			<g>
				<g>
					<path d="M107.74,369.968c1.649-0.956,2.671-2.674,2.931-4.542c0.265-1.901-0.103-4.19-1.451-5.642
						c-1.13-1.216-3.223-1.677-4.507-0.424c-1.363,1.33-1.033,3.45-0.057,4.89c0.519,0.766,1.22,1.381,1.743,2.145
						c0.642,0.939,1.115,2.048,0.857,3.199c-0.093,0.414,0.543,0.59,0.636,0.176c0.33-1.473-0.29-2.883-1.166-4.045
						c-0.947-1.256-2.288-2.327-2.274-4.049c0.006-0.816,0.351-1.674,1.069-2.112c0.72-0.438,1.655-0.346,2.38,0.028
						c1.641,0.848,2.179,3.008,2.188,4.709c0.011,2.038-0.877,4.049-2.681,5.096C107.04,369.612,107.372,370.182,107.74,369.968z"/>
				</g>
			</g>
		</g>
		<g>
			<g>
				<path style="fill:#F8E6FA;" d="M394.762,398.739c-31.391,0-31.391-17.762-62.782-17.762s-31.391,17.762-62.782,17.762
					c-31.39,0-31.39-17.762-62.779-17.762c-31.389,0-31.389,17.762-62.777,17.762c-31.387,0-31.387-17.762-62.775-17.762v39.233
					h313.896V398.739z"/>
			</g>
			<g>
				<g>
					<path d="M394.762,399.069c-15.782,0-23.8-4.537-31.554-8.924c-7.679-4.345-15.62-8.838-31.229-8.838
						c-15.609,0-23.549,4.493-31.229,8.838c-7.754,4.387-15.771,8.924-31.554,8.924c-15.782,0-23.799-4.537-31.552-8.924
						c-7.679-4.345-15.619-8.838-31.227-8.838c-15.607,0-23.547,4.493-31.226,8.838c-7.753,4.387-15.77,8.924-31.551,8.924
						c-15.781,0-23.797-4.537-31.55-8.924c-7.678-4.345-15.618-8.838-31.225-8.838c-0.182,0-0.33-0.148-0.33-0.33
						c0-0.182,0.148-0.33,0.33-0.33c15.78,0,23.797,4.537,31.55,8.924c7.678,4.345,15.618,8.838,31.225,8.838
						c15.607,0,23.547-4.493,31.226-8.838c7.753-4.387,15.77-8.924,31.551-8.924c15.782,0,23.799,4.537,31.552,8.924
						c7.679,4.345,15.619,8.838,31.227,8.838c15.609,0,23.549-4.493,31.228-8.838c7.754-4.387,15.772-8.924,31.554-8.924
						c15.782,0,23.8,4.537,31.554,8.924c7.679,4.345,15.62,8.838,31.228,8.838c0.182,0,0.33,0.148,0.33,0.33
						C395.092,398.921,394.944,399.069,394.762,399.069z"/>
				</g>
				<g>
					<path d="M269.198,409.639c-15.782,0-23.799-4.537-31.552-8.924c-7.679-4.345-15.619-8.838-31.227-8.838
						c-15.607,0-23.547,4.493-31.226,8.838c-7.753,4.387-15.77,8.924-31.551,8.924c-14.142,0-21.848-3.573-28.528-7.232
						c-0.16-0.088-0.218-0.288-0.131-0.448c0.087-0.159,0.287-0.219,0.448-0.131c6.605,3.618,14.225,7.151,28.211,7.151
						c15.607,0,23.547-4.493,31.226-8.838c7.753-4.387,15.77-8.924,31.551-8.924c15.782,0,23.799,4.537,31.552,8.924
						c7.679,4.345,15.619,8.838,31.227,8.838c15.609,0,23.549-4.493,31.228-8.838c7.754-4.387,15.772-8.924,31.554-8.924
						c15.784,0,23.801,4.537,31.554,8.924c0.159,0.09,0.214,0.291,0.124,0.45c-0.089,0.158-0.29,0.216-0.45,0.125
						c-7.679-4.345-15.619-8.838-31.229-8.838c-15.609,0-23.549,4.493-31.229,8.838C292.997,405.102,284.98,409.639,269.198,409.639
						z"/>
				</g>
				<g>
					<path d="M269.198,420.209c-15.782,0-23.799-4.537-31.552-8.924c-7.679-4.345-15.619-8.838-31.227-8.838
						c-15.607,0-23.547,4.493-31.226,8.838c-7.753,4.387-15.77,8.924-31.551,8.924c-0.182,0-0.33-0.148-0.33-0.33
						s0.148-0.33,0.33-0.33c15.607,0,23.547-4.493,31.226-8.838c7.753-4.387,15.77-8.924,31.551-8.924
						c15.782,0,23.799,4.537,31.552,8.924c7.679,4.345,15.619,8.838,31.227,8.838c15.609,0,23.549-4.493,31.228-8.838
						c7.754-4.387,15.772-8.924,31.554-8.924c0.182,0,0.33,0.148,0.33,0.33s-0.148,0.33-0.33,0.33
						c-15.609,0-23.549,4.493-31.229,8.838C292.997,415.673,284.98,420.209,269.198,420.209z"/>
				</g>
			</g>
		</g>
	</g>
</g>
</svg>
